<?xml version="1.0" encoding="utf-8"?>
<!-- Generator: Adobe Illustrator 19.1.0, SVG Export Plug-In . SVG Version: 6.00 Build 0)  -->
<svg version="1.1" xmlns="http://www.w3.org/2000/svg" xmlns:xlink="http://www.w3.org/1999/xlink" x="0px" y="0px"
	 viewBox="0 0 917 323" style="enable-background:new 0 0 917 323;" xml:space="preserve">
<style type="text/css">
	.st0{display:none;}
	.st1{display:inline;fill:#3D334F;}
	.st2{fill:#6D6182;}
	.st3{fill:#FFFFFF;}
	.st4{fill:#BAB0CB;}
	.st5{fill:none;stroke:#6D6182;stroke-miterlimit:10;}
	.st6{fill:#3D334F;}
</style>
<g id="Layer_1" class="st0">
	<rect x="-181" y="-20" class="st1" width="1280" height="1000"/>
</g>
<g id="Text">
	
		<text transform="matrix(1 0 0 1 226.9204 402.0312)" class="st2" style="font-family:'Lato-Hairline'; font-size:65.4785px; letter-spacing:9;">SPACE RACE</text>
	
		<text transform="matrix(1 0 0 1 229.4941 449.3896)" class="st3" style="font-family:'Lato-Light'; font-size:40.867px; letter-spacing:5;">MISSION CONTROL</text>
	<rect x="230.5" y="507" style="fill:none;" width="455" height="61"/>
	<text transform="matrix(1 0 0 1 230.499 520.105)"><tspan x="0" y="0" class="st4" style="font-family:'Lato-Light'; font-size:18px; letter-spacing:1;">Mission Control is a tool for orchestrating devops </tspan><tspan x="0" y="30" class="st4" style="font-family:'Lato-Light'; font-size:18px; letter-spacing:1;">automation. It’s like a prettier, friendlier Jenkins.</tspan></text>
</g>
<g id="Top_Screens">
</g>
<g id="On-screen">
	<path class="st5" d="M631.8,163.7"/>
	<path class="st5" d="M901.4,165"/>
	<path class="st2" d="M149.5,57.2c-31.2,0-56.5,25.4-56.5,56.5s25.4,56.5,56.5,56.5s56.5-25.4,56.5-56.5S180.7,57.2,149.5,57.2z
		 M149.5,169.3c-30.6,0-55.5-24.9-55.5-55.5s24.9-55.5,55.5-55.5S205,83.1,205,113.7S180.1,169.3,149.5,169.3z"/>
	<path class="st2" d="M133.8,96.3c-7.5,0-13.6,6.1-13.6,13.6s6.1,13.6,13.6,13.6c7.5,0,13.6-6.1,13.6-13.6S141.3,96.3,133.8,96.3z
		 M133.8,122.4c-6.9,0-12.6-5.6-12.6-12.6s5.6-12.6,12.6-12.6c6.9,0,12.6,5.6,12.6,12.6S140.7,122.4,133.8,122.4z"/>
	<path class="st2" d="M138.9,89.3c4.5,0,8.2-3.7,8.2-8.1s-3.7-8.1-8.2-8.1c-4.5,0-8.1,3.7-8.1,8.1S134.4,89.3,138.9,89.3z M138.9,74
		c3.9,0,7.2,3.2,7.2,7.1s-3.2,7.1-7.2,7.1c-3.9,0-7.1-3.2-7.1-7.1S134.9,74,138.9,74z"/>
	<path class="st2" d="M123.7,85.4c0-2.3-1.9-4.2-4.2-4.2s-4.2,1.9-4.2,4.2s1.9,4.2,4.2,4.2S123.7,87.7,123.7,85.4z M119.5,88.6
		c-1.8,0-3.2-1.5-3.2-3.2s1.5-3.2,3.2-3.2s3.2,1.5,3.2,3.2S121.3,88.6,119.5,88.6z"/>
</g>
<g id="cover">
</g>
<g id="desk">
	<polygon class="st5" points="234.5,172.1 374.5,157.5 539.9,157.5 671.1,171 682.7,182.7 539.9,168.5 374.5,168.5 224.1,183.9 	"/>
	<polyline class="st5" points="242.3,306.4 380.1,296.5 531.7,296.5 662.7,305.7 	"/>
	<rect x="402.5" y="174.5" class="st5" width="115" height="54"/>
	<polygon class="st5" points="307.3,285.8 255.9,291.2 246.1,264.9 297.5,259.4 	"/>
	<polygon class="st5" points="369.5,278.4 332.6,281.5 325.3,254.8 362.2,251.7 	"/>
	<polyline class="st5" points="366.8,278.4 367.6,281.4 330.8,284.5 323.4,257.8 325.6,257.6 	"/>
	<polygon class="st5" points="645.4,291.5 608.3,285.2 613.3,252.2 650.4,258.4 	"/>
	<polyline class="st5" points="645.1,291.6 608.8,289.9 608.4,285.2 	"/>
	<polygon class="st5" points="268.3,285.2 258.9,286.2 252.4,268.9 261.8,267.9 	"/>
	<polygon class="st5" points="295.6,267.2 271.2,269.8 269.6,265.2 293.9,262.7 	"/>
	<polygon class="st5" points="280.8,274.4 276.1,274.9 275.4,273.1 280.1,272.6 	"/>
	<polygon class="st5" points="288.2,273.7 283.6,274.1 282.9,272.3 287.6,271.8 	"/>
	<polygon class="st5" points="295.7,272.9 291,273.4 290.4,271.5 295,271.1 	"/>
	<polygon class="st5" points="281.8,277.2 277.1,277.7 276.4,275.8 281.1,275.4 	"/>
	<polygon class="st5" points="289.2,276.4 284.6,276.9 283.9,275.1 288.6,274.6 	"/>
	<polygon class="st5" points="296.7,275.6 292,276.1 291.4,274.3 296,273.8 	"/>
	<polygon class="st5" points="282.8,279.9 278.1,280.4 277.4,278.6 282.1,278.1 	"/>
	<polygon class="st5" points="290.3,279.1 285.6,279.6 284.9,277.8 289.6,277.3 	"/>
	<polygon class="st5" points="291.3,281.8 286.6,282.3 285.9,280.5 290.6,280 	"/>
	<polygon class="st5" points="297.7,278.3 293.1,278.8 292.4,277 297.1,276.5 	"/>
	<polygon class="st5" points="358.5,231.1 244.5,242.7 244.5,188.4 358.5,176.8 	"/>
	<polygon class="st5" points="551.5,229.5 666.5,241.1 666.5,186.9 551.5,175.2 	"/>
	<polyline class="st5" points="245.9,265.4 247.2,277.9 255.7,291.9 	"/>
	<polygon class="st5" points="324.1,279.3 319.5,261.6 318.8,261.8 323.4,279.5 324.4,282.1 	"/>
	<line class="st5" x1="624.7" y1="264.1" x2="636.2" y2="266"/>
	<line class="st5" x1="625.6" y1="266" x2="634.1" y2="267.3"/>
	<polyline class="st5" points="223.5,184.4 224.5,250.7 374.5,235.5 539.9,235.5 682.9,249.7 683.5,183.3 	"/>
	<polygon class="st2" points="219,191.7 18,208.2 18,45 287,22.9 287,160.2 288,160.1 288,21.8 17.5,44 17,44 17,209.3 219,192.7 	
		"/>
	<path class="st2" d="M631.5,21.1l-0.5,0v139.5l1,0.1V22.2l269,22.1v119.7c-29.9-29.7-71.7-48.2-117-52.1V90.1c0.9,1,3.1,2.8,6.5,3
		c2.3,0.1,3.7-0.4,5.1-0.9c1.3-0.5,2.7-1,5-1c4.5,0,5.4,3.1,5.4,3.2l1,3.5V80.9l0-0.1c0,0-1.2-3.9-6.4-3.9c-2.5,0-4,0.6-5.4,1.1
		c-1.3,0.5-2.6,1-4.7,0.9c-4.1-0.2-6.2-3.2-6.3-3.2l-0.6,0.4H783v35.7c-5.7-0.5-11.4-0.7-17.1-0.7c-50.4,0-98.3,18.2-132,49.9
		l1.3,0.1C668.7,129.8,716,112,765.9,112c5.7,0,11.4,0.2,17.1,0.7V130h1v-17.2c45.4,3.9,87.3,22.6,117,52.5v42.1l-212-17.4v1
		l212.5,17.4l0.5,0V43.3L631.5,21.1z M784,76.8c0.9,1,3.1,2.8,6.5,3c2.3,0.1,3.7-0.4,5.1-0.9c1.3-0.5,2.7-1,5-1
		c4.2,0,5.3,2.7,5.4,3.1v11.4c-0.9-1.1-2.5-2.2-5.4-2.2c-2.5,0-4,0.6-5.4,1.1c-1.3,0.5-2.6,1-4.7,0.9c-4.1-0.2-6.2-3.2-6.3-3.2
		L784,89V76.8z"/>
	<g>
		<polygon class="st2" points="296,159.2 296,22 624,22 624,159.9 625,160 625,21 295,21 295,159.4 		"/>
		<path class="st2" d="M338.7,154.8l1.5-0.2c5.5-6.3,12.1-13.2,19.9-20.2C387.7,109.8,436.6,78.1,513,67c1.5,4.7,5.9,8.1,11,8.1
			c6.4,0,11.6-5.2,11.6-11.6c0-6.4-5.2-11.6-11.6-11.6s-11.6,5.2-11.6,11.6c0,0.9,0.1,1.7,0.3,2.5c-76.6,11.1-125.7,42.9-153.3,67.7
			C351.2,141.1,344.4,148.3,338.7,154.8z M524.1,53c5.8,0,10.6,4.7,10.6,10.6c0,5.8-4.7,10.6-10.6,10.6s-10.6-4.7-10.6-10.6
			C513.5,57.8,518.2,53,524.1,53z"/>
	</g>
</g>
<g id="buttons">
	<path class="st2" d="M428,620c0,2.8-2.3,5-5,5H282c-2.8,0-5-2.3-5-5V595c0-2.8,2.3-5,5-5H423c2.8,0,5,2.3,5,5V620z"/>
	<text transform="matrix(1 0 0 1 309.1104 612.9775)" class="st6" style="font-family:'Lato-Bold'; font-size:14.797px;">View on GitHub</text>
	<path class="st2" d="M607,620c0,2.8-2.3,5-5,5H461c-2.8,0-5-2.3-5-5V595c0-2.8,2.3-5,5-5H602c2.8,0,5,2.3,5,5V620z"/>
	<text transform="matrix(1 0 0 1 488.8887 612.9482)" class="st6" style="font-family:'Lato-Bold'; font-size:14.797px;">Read the Docs</text>
	<text transform="matrix(1 0 0 1 286.3447 614.9845)" class="st6" style="font-family:'FontAwesome'; font-size:20.1209px;"></text>
	<text transform="matrix(1 0 0 1 466.6187 612.0029)" class="st6" style="font-family:'FontAwesome'; font-size:14.797px;"></text>
</g>
<g id="extra_illustrations">
	<rect x="-293.5" y="419.5" class="st5" width="55" height="67"/>
	<rect x="-288.5" y="430.5" class="st5" width="16" height="45"/>
	<rect x="-269.5" y="427.5" class="st5" width="26" height="10"/>
	<rect x="-266.5" y="446.5" class="st5" width="5" height="5"/>
	<rect x="-258.5" y="446.5" class="st5" width="5" height="5"/>
	<rect x="-250.5" y="446.5" class="st5" width="5" height="5"/>
	<rect x="-266.5" y="453.5" class="st5" width="5" height="5"/>
	<rect x="-258.5" y="453.5" class="st5" width="5" height="5"/>
	<rect x="-250.5" y="453.5" class="st5" width="5" height="5"/>
	<rect x="-266.5" y="460.5" class="st5" width="5" height="5"/>
	<rect x="-258.5" y="460.5" class="st5" width="5" height="5"/>
	<rect x="-258.5" y="467.5" class="st5" width="5" height="5"/>
	<rect x="-250.5" y="460.5" class="st5" width="5" height="5"/>
</g>
<g id="Docs">
	<rect x="1406" y="-20" class="st6" width="303" height="1000"/>
	<g>
		<path class="st2" d="M1466.3,30.8c-0.1,0.2-0.2,0.2-0.4,0.2c-0.1,0-0.3-0.1-0.5-0.3c-0.2-0.2-0.5-0.4-0.8-0.6
			c-0.3-0.2-0.8-0.4-1.3-0.6c-0.5-0.2-1.1-0.3-1.9-0.3c-0.7,0-1.4,0.1-1.9,0.3c-0.6,0.2-1,0.5-1.4,0.9s-0.7,0.8-0.9,1.3
			c-0.2,0.5-0.3,1-0.3,1.5c0,0.7,0.1,1.3,0.4,1.7c0.3,0.4,0.7,0.8,1.2,1.1c0.5,0.3,1,0.6,1.6,0.8c0.6,0.2,1.2,0.4,1.9,0.6
			c0.6,0.2,1.3,0.4,1.9,0.7c0.6,0.3,1.2,0.6,1.6,1c0.5,0.4,0.9,0.9,1.2,1.4c0.3,0.6,0.4,1.3,0.4,2.1c0,0.9-0.1,1.7-0.4,2.4
			c-0.3,0.8-0.7,1.4-1.3,2c-0.6,0.6-1.2,1-2,1.3c-0.8,0.3-1.7,0.5-2.8,0.5c-1.3,0-2.5-0.2-3.5-0.7c-1-0.5-1.8-1.1-2.5-1.9l0.4-0.6
			c0.1-0.1,0.2-0.2,0.4-0.2c0.1,0,0.2,0.1,0.3,0.2c0.1,0.1,0.3,0.3,0.5,0.4c0.2,0.2,0.4,0.3,0.7,0.5c0.3,0.2,0.6,0.4,0.9,0.5
			c0.4,0.2,0.8,0.3,1.2,0.4s1,0.2,1.6,0.2c0.8,0,1.5-0.1,2.2-0.4c0.6-0.2,1.2-0.6,1.6-1c0.4-0.4,0.8-0.9,1-1.5
			c0.2-0.6,0.3-1.2,0.3-1.9c0-0.7-0.1-1.3-0.4-1.8c-0.3-0.5-0.7-0.9-1.2-1.2c-0.5-0.3-1-0.6-1.6-0.8c-0.6-0.2-1.2-0.4-1.9-0.6
			c-0.6-0.2-1.3-0.4-1.9-0.7c-0.6-0.2-1.2-0.6-1.6-1c-0.5-0.4-0.9-0.9-1.2-1.4c-0.3-0.6-0.4-1.3-0.4-2.2c0-0.7,0.1-1.3,0.4-2
			c0.3-0.6,0.6-1.2,1.1-1.7c0.5-0.5,1.1-0.9,1.8-1.2c0.7-0.3,1.6-0.4,2.5-0.4c1.1,0,2,0.2,2.8,0.5c0.8,0.3,1.6,0.8,2.3,1.5
			L1466.3,30.8z"/>
		<path class="st2" d="M1477.4,40.5v8.2h-1.5V28.3h5.2c2.4,0,4.2,0.5,5.4,1.6c1.2,1,1.8,2.5,1.8,4.5c0,0.9-0.2,1.7-0.5,2.5
			c-0.3,0.7-0.8,1.4-1.4,1.9c-0.6,0.5-1.4,1-2.3,1.3c-0.9,0.3-1.9,0.5-3,0.5H1477.4z M1477.4,39.3h3.8c0.9,0,1.7-0.1,2.4-0.4
			c0.7-0.2,1.3-0.6,1.8-1c0.5-0.4,0.9-1,1.1-1.6c0.3-0.6,0.4-1.2,0.4-2c0-1.6-0.5-2.8-1.4-3.6c-1-0.8-2.4-1.3-4.3-1.3h-3.8V39.3z"/>
		<path class="st2" d="M1510.1,48.6h-1.1c-0.1,0-0.2,0-0.3-0.1c-0.1-0.1-0.2-0.2-0.2-0.3l-2.4-5.9h-10l-2.4,5.9
			c0,0.1-0.1,0.2-0.2,0.3c-0.1,0.1-0.2,0.1-0.3,0.1h-1.1l8.3-20.3h1.5L1510.1,48.6z M1496.5,41.3h9.1l-4.1-10.3
			c-0.1-0.2-0.1-0.3-0.2-0.6c-0.1-0.2-0.1-0.4-0.2-0.7c-0.1,0.2-0.1,0.4-0.2,0.7c-0.1,0.2-0.1,0.4-0.2,0.6L1496.5,41.3z"/>
		<path class="st2" d="M1531.7,45.2c0.1,0,0.2,0,0.2,0.1l0.6,0.6c-0.4,0.4-0.9,0.9-1.4,1.2c-0.5,0.4-1,0.7-1.6,0.9
			c-0.6,0.3-1.2,0.4-1.9,0.6c-0.7,0.1-1.5,0.2-2.3,0.2c-1.4,0-2.7-0.2-3.9-0.7c-1.2-0.5-2.2-1.2-3-2.1c-0.8-0.9-1.5-2-2-3.3
			c-0.5-1.3-0.7-2.7-0.7-4.3c0-1.5,0.2-2.9,0.7-4.2c0.5-1.3,1.2-2.4,2-3.3c0.9-0.9,1.9-1.6,3.1-2.1c1.2-0.5,2.6-0.8,4-0.8
			c0.7,0,1.4,0.1,2,0.2c0.6,0.1,1.2,0.3,1.7,0.5c0.5,0.2,1,0.5,1.5,0.8c0.5,0.3,0.9,0.7,1.4,1.1l-0.4,0.6c-0.1,0.1-0.2,0.2-0.4,0.2
			c-0.1,0-0.2,0-0.3-0.2s-0.3-0.2-0.5-0.4c-0.2-0.1-0.5-0.3-0.7-0.5c-0.3-0.2-0.6-0.3-1-0.5c-0.4-0.1-0.9-0.3-1.4-0.4
			c-0.5-0.1-1.1-0.2-1.8-0.2c-1.2,0-2.4,0.2-3.4,0.6c-1,0.4-1.9,1-2.7,1.8c-0.7,0.8-1.3,1.7-1.7,2.9c-0.4,1.1-0.6,2.4-0.6,3.8
			c0,1.4,0.2,2.7,0.6,3.8s1,2.1,1.7,2.9c0.7,0.8,1.6,1.4,2.6,1.8c1,0.4,2.1,0.6,3.2,0.6c0.7,0,1.4,0,1.9-0.1
			c0.6-0.1,1.1-0.2,1.6-0.4c0.5-0.2,0.9-0.4,1.3-0.7c0.4-0.3,0.8-0.6,1.2-1c0,0,0.1-0.1,0.1-0.1
			C1531.6,45.2,1531.6,45.2,1531.7,45.2z"/>
		<path class="st2" d="M1553.3,28.3v1.2h-10.7v8.2h8.9V39h-8.9v8.5h10.7v1.2h-12.2V28.3H1553.3z"/>
		<path class="st2" d="M1573.5,39.5v9.2h-1.5V28.3h5.2c2.3,0,4.1,0.5,5.2,1.4c1.2,0.9,1.7,2.2,1.7,4c0,0.8-0.1,1.5-0.4,2.1
			c-0.3,0.6-0.7,1.2-1.2,1.7c-0.5,0.5-1.1,0.9-1.8,1.2c-0.7,0.3-1.5,0.5-2.4,0.6c0.2,0.1,0.4,0.3,0.6,0.6l7,8.8h-1.3
			c-0.2,0-0.3,0-0.4-0.1c-0.1-0.1-0.2-0.2-0.3-0.3l-6.5-8.2c-0.2-0.2-0.3-0.4-0.5-0.4c-0.2-0.1-0.5-0.1-0.9-0.1H1573.5z
			 M1573.5,38.4h3.5c0.9,0,1.7-0.1,2.4-0.3c0.7-0.2,1.3-0.5,1.8-0.9c0.5-0.4,0.9-0.9,1.1-1.4c0.3-0.6,0.4-1.2,0.4-1.9
			c0-1.4-0.5-2.5-1.4-3.2c-0.9-0.7-2.3-1-4.1-1h-3.7V38.4z"/>
		<path class="st2" d="M1609,48.6h-1.1c-0.1,0-0.2,0-0.3-0.1c-0.1-0.1-0.2-0.2-0.2-0.3l-2.4-5.9h-10l-2.4,5.9c0,0.1-0.1,0.2-0.2,0.3
			c-0.1,0.1-0.2,0.1-0.3,0.1h-1.1l8.3-20.3h1.5L1609,48.6z M1595.5,41.3h9.1l-4.1-10.3c-0.1-0.2-0.1-0.3-0.2-0.6
			c-0.1-0.2-0.1-0.4-0.2-0.7c-0.1,0.2-0.1,0.4-0.2,0.7c-0.1,0.2-0.1,0.4-0.2,0.6L1595.5,41.3z"/>
		<path class="st2" d="M1630.6,45.2c0.1,0,0.2,0,0.2,0.1l0.6,0.6c-0.4,0.4-0.9,0.9-1.4,1.2c-0.5,0.4-1,0.7-1.6,0.9
			c-0.6,0.3-1.2,0.4-1.9,0.6c-0.7,0.1-1.5,0.2-2.3,0.2c-1.4,0-2.7-0.2-3.9-0.7c-1.2-0.5-2.2-1.2-3-2.1c-0.8-0.9-1.5-2-2-3.3
			c-0.5-1.3-0.7-2.7-0.7-4.3c0-1.5,0.2-2.9,0.7-4.2c0.5-1.3,1.2-2.4,2-3.3c0.9-0.9,1.9-1.6,3.1-2.1c1.2-0.5,2.6-0.8,4-0.8
			c0.7,0,1.4,0.1,2,0.2c0.6,0.1,1.2,0.3,1.7,0.5c0.5,0.2,1,0.5,1.5,0.8c0.5,0.3,0.9,0.7,1.4,1.1l-0.4,0.6c-0.1,0.1-0.2,0.2-0.4,0.2
			c-0.1,0-0.2,0-0.3-0.2s-0.3-0.2-0.5-0.4c-0.2-0.1-0.5-0.3-0.7-0.5c-0.3-0.2-0.6-0.3-1-0.5c-0.4-0.1-0.9-0.3-1.4-0.4
			c-0.5-0.1-1.1-0.2-1.8-0.2c-1.2,0-2.4,0.2-3.4,0.6c-1,0.4-1.9,1-2.7,1.8c-0.7,0.8-1.3,1.7-1.7,2.9c-0.4,1.1-0.6,2.4-0.6,3.8
			c0,1.4,0.2,2.7,0.6,3.8s1,2.1,1.7,2.9c0.7,0.8,1.6,1.4,2.6,1.8c1,0.4,2.1,0.6,3.2,0.6c0.7,0,1.4,0,1.9-0.1
			c0.6-0.1,1.1-0.2,1.6-0.4c0.5-0.2,0.9-0.4,1.3-0.7c0.4-0.3,0.8-0.6,1.2-1c0,0,0.1-0.1,0.1-0.1
			C1630.5,45.2,1630.5,45.2,1630.6,45.2z"/>
		<path class="st2" d="M1652.2,28.3v1.2h-10.7v8.2h8.9V39h-8.9v8.5h10.7v1.2H1640V28.3H1652.2z"/>
	</g>
	<g>
		<path class="st3" d="M1471.8,78.8c0.1-0.2,0.2-0.4,0.3-0.6c0.1-0.2,0.2-0.4,0.3-0.6l11.4-20.1c0.1-0.2,0.2-0.3,0.3-0.3
			c0.1,0,0.3-0.1,0.5-0.1h1.5V86h-1.8V61.4c0-0.4,0-0.7,0.1-1.1l-11.4,20.2c-0.2,0.4-0.5,0.5-0.8,0.5h-0.3c-0.3,0-0.6-0.2-0.8-0.5
			l-11.7-20.2c0,0.4,0.1,0.8,0.1,1.1V86h-1.8V57.1h1.4c0.2,0,0.3,0,0.5,0.1c0.1,0,0.2,0.2,0.3,0.3l11.7,20.1
			C1471.4,78,1471.6,78.4,1471.8,78.8z"/>
		<path class="st3" d="M1503.1,86h-2.1V57.1h2.1V86z"/>
		<path class="st3" d="M1532.2,60.6c-0.1,0.2-0.3,0.3-0.5,0.3c-0.2,0-0.4-0.1-0.7-0.4c-0.3-0.3-0.7-0.5-1.1-0.8
			c-0.5-0.3-1.1-0.6-1.8-0.8c-0.7-0.3-1.6-0.4-2.7-0.4c-1.1,0-2,0.1-2.8,0.4c-0.8,0.3-1.5,0.7-2,1.2c-0.5,0.5-1,1.1-1.2,1.8
			c-0.3,0.7-0.4,1.4-0.4,2.1c0,1,0.2,1.8,0.6,2.4c0.4,0.6,1,1.2,1.6,1.6c0.7,0.4,1.5,0.8,2.3,1.1c0.9,0.3,1.8,0.6,2.7,0.9
			c0.9,0.3,1.8,0.6,2.7,1c0.9,0.4,1.6,0.8,2.3,1.4c0.7,0.5,1.2,1.2,1.6,2c0.4,0.8,0.6,1.8,0.6,3c0,1.2-0.2,2.4-0.6,3.4
			c-0.4,1.1-1,2-1.8,2.8c-0.8,0.8-1.8,1.4-2.9,1.9c-1.1,0.5-2.5,0.7-3.9,0.7c-1.9,0-3.5-0.3-4.9-1c-1.4-0.7-2.6-1.6-3.6-2.8l0.6-0.9
			c0.2-0.2,0.4-0.3,0.6-0.3c0.1,0,0.3,0.1,0.5,0.2c0.2,0.2,0.4,0.4,0.7,0.6c0.3,0.2,0.6,0.5,1,0.8c0.4,0.3,0.8,0.5,1.3,0.8
			c0.5,0.2,1.1,0.4,1.7,0.6c0.7,0.2,1.4,0.2,2.2,0.2c1.1,0,2.2-0.2,3.1-0.5c0.9-0.3,1.7-0.8,2.3-1.4c0.6-0.6,1.1-1.3,1.4-2.1
			c0.3-0.8,0.5-1.7,0.5-2.6c0-1-0.2-1.9-0.6-2.5c-0.4-0.7-1-1.2-1.6-1.7c-0.7-0.4-1.5-0.8-2.3-1.1c-0.9-0.3-1.8-0.6-2.7-0.9
			c-0.9-0.3-1.8-0.6-2.7-1s-1.6-0.8-2.3-1.4c-0.7-0.6-1.2-1.2-1.6-2.1c-0.4-0.8-0.6-1.9-0.6-3.1c0-1,0.2-1.9,0.6-2.8
			c0.4-0.9,0.9-1.7,1.6-2.4c0.7-0.7,1.6-1.2,2.6-1.7c1-0.4,2.2-0.6,3.6-0.6c1.5,0,2.8,0.2,4,0.7c1.2,0.5,2.3,1.2,3.3,2.2
			L1532.2,60.6z"/>
		<path class="st3" d="M1559.2,60.6c-0.1,0.2-0.3,0.3-0.5,0.3c-0.2,0-0.4-0.1-0.7-0.4c-0.3-0.3-0.7-0.5-1.1-0.8
			c-0.5-0.3-1.1-0.6-1.8-0.8c-0.7-0.3-1.6-0.4-2.7-0.4c-1.1,0-2,0.1-2.8,0.4c-0.8,0.3-1.5,0.7-2,1.2c-0.5,0.5-1,1.1-1.2,1.8
			c-0.3,0.7-0.4,1.4-0.4,2.1c0,1,0.2,1.8,0.6,2.4c0.4,0.6,1,1.2,1.6,1.6c0.7,0.4,1.5,0.8,2.3,1.1c0.9,0.3,1.8,0.6,2.7,0.9
			c0.9,0.3,1.8,0.6,2.7,1c0.9,0.4,1.6,0.8,2.3,1.4c0.7,0.5,1.2,1.2,1.6,2c0.4,0.8,0.6,1.8,0.6,3c0,1.2-0.2,2.4-0.6,3.4
			c-0.4,1.1-1,2-1.8,2.8c-0.8,0.8-1.8,1.4-2.9,1.9c-1.1,0.5-2.5,0.7-3.9,0.7c-1.9,0-3.5-0.3-4.9-1c-1.4-0.7-2.6-1.6-3.6-2.8l0.6-0.9
			c0.2-0.2,0.4-0.3,0.6-0.3c0.1,0,0.3,0.1,0.5,0.2c0.2,0.2,0.4,0.4,0.7,0.6c0.3,0.2,0.6,0.5,1,0.8c0.4,0.3,0.8,0.5,1.3,0.8
			c0.5,0.2,1.1,0.4,1.7,0.6c0.7,0.2,1.4,0.2,2.2,0.2c1.1,0,2.2-0.2,3.1-0.5c0.9-0.3,1.7-0.8,2.3-1.4c0.6-0.6,1.1-1.3,1.4-2.1
			c0.3-0.8,0.5-1.7,0.5-2.6c0-1-0.2-1.9-0.6-2.5c-0.4-0.7-1-1.2-1.6-1.7c-0.7-0.4-1.5-0.8-2.3-1.1c-0.9-0.3-1.8-0.6-2.7-0.9
			c-0.9-0.3-1.8-0.6-2.7-1s-1.6-0.8-2.3-1.4c-0.7-0.6-1.2-1.2-1.6-2.1c-0.4-0.8-0.6-1.9-0.6-3.1c0-1,0.2-1.9,0.6-2.8
			c0.4-0.9,0.9-1.7,1.6-2.4c0.7-0.7,1.6-1.2,2.6-1.7c1-0.4,2.2-0.6,3.6-0.6c1.5,0,2.8,0.2,4,0.7c1.2,0.5,2.3,1.2,3.3,2.2
			L1559.2,60.6z"/>
		<path class="st3" d="M1575.2,86h-2.1V57.1h2.1V86z"/>
		<path class="st3" d="M1616,71.5c0,2.2-0.3,4.3-1,6.1c-0.7,1.8-1.6,3.4-2.8,4.7c-1.2,1.3-2.7,2.3-4.4,3c-1.7,0.7-3.6,1.1-5.6,1.1
			c-2,0-3.9-0.4-5.6-1.1c-1.7-0.7-3.1-1.7-4.4-3c-1.2-1.3-2.2-2.8-2.8-4.7c-0.7-1.8-1-3.8-1-6.1c0-2.2,0.3-4.2,1-6.1
			c0.7-1.8,1.6-3.4,2.8-4.7c1.2-1.3,2.7-2.3,4.4-3c1.7-0.7,3.5-1.1,5.6-1.1c2.1,0,3.9,0.4,5.6,1.1c1.7,0.7,3.1,1.7,4.4,3
			c1.2,1.3,2.2,2.8,2.8,4.7C1615.7,67.3,1616,69.3,1616,71.5z M1613.9,71.5c0-2-0.3-3.8-0.8-5.4c-0.6-1.6-1.3-3-2.4-4.1
			c-1-1.1-2.2-2-3.7-2.6c-1.4-0.6-3-0.9-4.8-0.9c-1.7,0-3.3,0.3-4.7,0.9c-1.4,0.6-2.6,1.4-3.7,2.6c-1,1.1-1.8,2.5-2.4,4.1
			c-0.6,1.6-0.8,3.4-0.8,5.4c0,2,0.3,3.8,0.8,5.4c0.6,1.6,1.4,3,2.4,4.1c1,1.1,2.3,2,3.7,2.6c1.4,0.6,3,0.9,4.7,0.9
			c1.7,0,3.3-0.3,4.8-0.9c1.4-0.6,2.7-1.4,3.7-2.6c1-1.1,1.8-2.5,2.4-4.1S1613.9,73.6,1613.9,71.5z"/>
		<path class="st3" d="M1630,57.2c0.1,0,0.2,0.2,0.3,0.3l18.7,25.1c0-0.4-0.1-0.8-0.1-1.2V57.1h1.8V86h-1c-0.3,0-0.6-0.1-0.8-0.4
			l-18.8-25.1c0,0.4,0.1,0.8,0.1,1.2V86h-1.8V57.1h1C1629.8,57.1,1629.9,57.1,1630,57.2z"/>
	</g>
	<g>
		<path class="st3" d="M1477.2,115.5c0.1,0,0.2,0,0.3,0.1l0.7,0.8c-0.5,0.6-1.1,1.1-1.7,1.5c-0.6,0.4-1.3,0.8-2,1.1
			c-0.7,0.3-1.5,0.6-2.4,0.7c-0.9,0.2-1.8,0.3-2.9,0.3c-1.8,0-3.4-0.3-4.8-0.9c-1.5-0.6-2.7-1.5-3.7-2.6c-1-1.1-1.9-2.5-2.4-4.1
			c-0.6-1.6-0.9-3.4-0.9-5.3c0-1.9,0.3-3.7,0.9-5.2c0.6-1.6,1.4-2.9,2.5-4.1c1.1-1.1,2.4-2,3.9-2.6s3.2-0.9,5-0.9
			c0.9,0,1.8,0.1,2.5,0.2c0.8,0.1,1.5,0.3,2.1,0.6c0.7,0.3,1.3,0.6,1.9,1c0.6,0.4,1.2,0.8,1.7,1.3l-0.6,0.8
			c-0.1,0.1-0.2,0.2-0.4,0.2c-0.1,0-0.2-0.1-0.4-0.2c-0.2-0.1-0.4-0.3-0.6-0.5c-0.3-0.2-0.6-0.4-0.9-0.6c-0.4-0.2-0.8-0.4-1.3-0.6
			c-0.5-0.2-1.1-0.3-1.7-0.5c-0.7-0.1-1.4-0.2-2.2-0.2c-1.5,0-2.9,0.3-4.2,0.8c-1.3,0.5-2.4,1.3-3.3,2.3c-0.9,1-1.7,2.2-2.2,3.6
			c-0.5,1.4-0.8,3-0.8,4.7c0,1.8,0.3,3.4,0.8,4.8c0.5,1.4,1.2,2.6,2.1,3.6c0.9,1,2,1.7,3.2,2.2c1.2,0.5,2.6,0.8,4,0.8
			c0.9,0,1.7-0.1,2.4-0.2c0.7-0.1,1.4-0.3,2-0.5c0.6-0.2,1.1-0.5,1.7-0.9c0.5-0.3,1-0.8,1.5-1.2c0.1,0,0.1-0.1,0.2-0.1
			C1477,115.5,1477.1,115.5,1477.2,115.5z"/>
		<path class="st3" d="M1511.5,107.1c0,2-0.3,3.7-0.9,5.3c-0.6,1.6-1.4,2.9-2.5,4.1s-2.3,2-3.8,2.6c-1.5,0.6-3.1,0.9-4.9,0.9
			c-1.8,0-3.4-0.3-4.9-0.9c-1.5-0.6-2.7-1.5-3.8-2.6s-1.9-2.5-2.5-4.1c-0.6-1.6-0.9-3.4-0.9-5.3c0-1.9,0.3-3.7,0.9-5.3
			c0.6-1.6,1.4-2.9,2.5-4.1s2.3-2,3.8-2.6c1.5-0.6,3.1-0.9,4.9-0.9c1.8,0,3.4,0.3,4.9,0.9c1.5,0.6,2.7,1.5,3.8,2.6
			c1.1,1.1,1.9,2.5,2.5,4.1C1511.2,103.4,1511.5,105.1,1511.5,107.1z M1509.6,107.1c0-1.8-0.2-3.3-0.7-4.7c-0.5-1.4-1.2-2.6-2.1-3.6
			c-0.9-1-2-1.7-3.2-2.2c-1.2-0.5-2.6-0.8-4.2-0.8c-1.5,0-2.9,0.3-4.1,0.8c-1.2,0.5-2.3,1.3-3.2,2.2c-0.9,1-1.6,2.2-2.1,3.6
			c-0.5,1.4-0.7,3-0.7,4.7c0,1.8,0.2,3.4,0.7,4.8c0.5,1.4,1.2,2.6,2.1,3.6c0.9,1,2,1.7,3.2,2.2c1.2,0.5,2.6,0.8,4.1,0.8
			c1.5,0,2.9-0.3,4.2-0.8c1.2-0.5,2.3-1.3,3.2-2.2c0.9-1,1.6-2.2,2.1-3.6C1509.3,110.4,1509.6,108.8,1509.6,107.1z"/>
		<path class="st3" d="M1523.7,94.5c0.1,0,0.2,0.1,0.3,0.3l16.4,21.9c0-0.4-0.1-0.7-0.1-1V94.4h1.6v25.3h-0.9
			c-0.3,0-0.5-0.1-0.7-0.4l-16.4-21.9c0,0.4,0.1,0.7,0.1,1v21.3h-1.6V94.4h0.9C1523.5,94.4,1523.6,94.5,1523.7,94.5z"/>
		<path class="st3" d="M1570.9,94.4V96h-8.9v23.7h-1.8V96h-8.9v-1.6H1570.9z"/>
		<path class="st3" d="M1582.6,108.3v11.4h-1.8V94.4h6.4c2.9,0,5.1,0.6,6.5,1.7s2.2,2.8,2.2,5c0,1-0.2,1.8-0.5,2.6
			c-0.3,0.8-0.8,1.5-1.4,2.1c-0.6,0.6-1.4,1.1-2.3,1.5c-0.9,0.4-1.9,0.6-3,0.8c0.3,0.2,0.5,0.4,0.8,0.7l8.7,10.9h-1.6
			c-0.2,0-0.4,0-0.5-0.1c-0.1-0.1-0.3-0.2-0.4-0.4l-8.1-10.2c-0.2-0.3-0.4-0.4-0.7-0.6c-0.2-0.1-0.6-0.2-1.1-0.2H1582.6z
			 M1582.6,106.9h4.4c1.1,0,2.1-0.1,3-0.4c0.9-0.3,1.6-0.7,2.2-1.2s1.1-1.1,1.4-1.8c0.3-0.7,0.5-1.5,0.5-2.4c0-1.8-0.6-3.1-1.8-4
			c-1.2-0.9-2.9-1.3-5.1-1.3h-4.6V106.9z"/>
		<path class="st3" d="M1629.6,107.1c0,2-0.3,3.7-0.9,5.3c-0.6,1.6-1.4,2.9-2.5,4.1s-2.3,2-3.8,2.6c-1.5,0.6-3.1,0.9-4.9,0.9
			c-1.8,0-3.4-0.3-4.9-0.9c-1.5-0.6-2.7-1.5-3.8-2.6s-1.9-2.5-2.5-4.1c-0.6-1.6-0.9-3.4-0.9-5.3c0-1.9,0.3-3.7,0.9-5.3
			c0.6-1.6,1.4-2.9,2.5-4.1s2.3-2,3.8-2.6c1.5-0.6,3.1-0.9,4.9-0.9c1.8,0,3.4,0.3,4.9,0.9c1.5,0.6,2.7,1.5,3.8,2.6
			c1.1,1.1,1.9,2.5,2.5,4.1C1629.3,103.4,1629.6,105.1,1629.6,107.1z M1627.7,107.1c0-1.8-0.2-3.3-0.7-4.7c-0.5-1.4-1.2-2.6-2.1-3.6
			c-0.9-1-2-1.7-3.2-2.2c-1.2-0.5-2.6-0.8-4.2-0.8c-1.5,0-2.9,0.3-4.1,0.8c-1.2,0.5-2.3,1.3-3.2,2.2c-0.9,1-1.6,2.2-2.1,3.6
			c-0.5,1.4-0.7,3-0.7,4.7c0,1.8,0.2,3.4,0.7,4.8c0.5,1.4,1.2,2.6,2.1,3.6c0.9,1,2,1.7,3.2,2.2c1.2,0.5,2.6,0.8,4.1,0.8
			c1.5,0,2.9-0.3,4.2-0.8c1.2-0.5,2.3-1.3,3.2-2.2c0.9-1,1.6-2.2,2.1-3.6C1627.4,110.4,1627.7,108.8,1627.7,107.1z"/>
		<path class="st3" d="M1642.3,118.2h12v1.6h-13.8V94.4h1.8V118.2z"/>
	</g>
	<line class="st5" x1="1433" y1="145.5" x2="1687" y2="145.5"/>
</g>
</svg>
