<?xml version="1.0" encoding="utf-8"?>
<!-- Generator: Adobe Illustrator 19.1.0, SVG Export Plug-In . SVG Version: 6.00 Build 0)  -->
<svg version="1.1" xmlns="http://www.w3.org/2000/svg" xmlns:xlink="http://www.w3.org/1999/xlink" x="0px" y="0px"
	 viewBox="0 0 458.5 110" style="enable-background:new 0 0 458.5 110;" xml:space="preserve">
<style type="text/css">
	.st0{fill:#6D6182;}
	.st1{fill:#FFFFFF;}
</style>
<g id="Layer_1">
</g>
<g id="Text">
</g>
<g id="Top_Screens">
</g>
<g id="On-screen">
</g>
<g id="cover">
</g>
<g id="desk">
	<g>
		<path class="st0" d="M30.3,16.8c-0.2,0.4-0.5,0.6-0.9,0.6c-0.3,0-0.7-0.2-1.1-0.6c-0.4-0.4-1.1-0.9-1.8-1.3s-1.7-0.9-2.9-1.4
			s-2.6-0.6-4.3-0.6c-1.7,0-3.2,0.2-4.5,0.7c-1.3,0.5-2.4,1.1-3.2,2c-0.9,0.8-1.5,1.8-2,2.9c-0.4,1.1-0.7,2.2-0.7,3.4
			c0,1.6,0.3,2.9,1,3.9c0.7,1,1.5,1.9,2.6,2.6s2.3,1.3,3.7,1.8c1.4,0.5,2.8,1,4.3,1.5c1.5,0.5,2.9,1,4.3,1.6
			c1.4,0.6,2.6,1.3,3.7,2.2c1.1,0.9,2,1.9,2.6,3.2s1,2.9,1,4.8c0,1.9-0.3,3.8-1,5.5c-0.7,1.7-1.6,3.2-2.9,4.5
			c-1.3,1.3-2.8,2.3-4.6,3C22,57.6,19.9,58,17.5,58c-3.1,0-5.7-0.5-7.9-1.6c-2.2-1.1-4.1-2.6-5.8-4.4l0.9-1.4C5,50.2,5.3,50,5.7,50
			c0.2,0,0.4,0.1,0.8,0.4c0.3,0.3,0.7,0.6,1.1,1c0.4,0.4,1,0.8,1.6,1.2c0.6,0.4,1.3,0.9,2.1,1.2c0.8,0.4,1.7,0.7,2.8,1
			c1,0.3,2.2,0.4,3.6,0.4c1.8,0,3.5-0.3,4.9-0.8s2.7-1.3,3.7-2.3c1-1,1.8-2.1,2.3-3.4c0.5-1.3,0.8-2.7,0.8-4.2c0-1.6-0.3-3-1-4
			c-0.7-1.1-1.5-1.9-2.6-2.7c-1.1-0.7-2.3-1.3-3.7-1.8c-1.4-0.5-2.8-0.9-4.3-1.4c-1.5-0.5-2.9-1-4.3-1.5c-1.4-0.6-2.6-1.3-3.7-2.2
			c-1.1-0.9-2-2-2.6-3.3c-0.7-1.3-1-3-1-5c0-1.5,0.3-3,0.9-4.5c0.6-1.4,1.5-2.7,2.6-3.8c1.1-1.1,2.5-2,4.2-2.7c1.7-0.7,3.6-1,5.7-1
			c2.4,0,4.6,0.4,6.5,1.1c1.9,0.8,3.7,1.9,5.2,3.5L30.3,16.8z"/>
		<path class="st0" d="M55.6,38.8v18.7h-3.3V11.2h12c5.4,0,9.5,1.2,12.3,3.6c2.8,2.4,4.1,5.8,4.1,10.2c0,2-0.4,3.9-1.1,5.6
			c-0.8,1.7-1.8,3.2-3.3,4.4c-1.4,1.2-3.1,2.2-5.2,2.9c-2,0.7-4.3,1-6.9,1H55.6z M55.6,36.1h8.6c2.1,0,3.9-0.3,5.5-0.9
			c1.6-0.6,3-1.4,4.1-2.4c1.1-1,2-2.2,2.6-3.6c0.6-1.4,0.9-2.9,0.9-4.5c0-3.6-1.1-6.3-3.3-8.2c-2.2-1.9-5.5-2.9-9.8-2.9h-8.6V36.1z"
			/>
		<path class="st0" d="M130.3,57.5h-2.6c-0.3,0-0.6-0.1-0.8-0.2c-0.2-0.2-0.3-0.4-0.5-0.6L121,43.1H98.3l-5.4,13.5
			c-0.1,0.2-0.2,0.4-0.5,0.6s-0.5,0.3-0.8,0.3H89l19-46.3h3.3L130.3,57.5z M99.3,40.7H120l-9.5-23.4c-0.2-0.4-0.3-0.8-0.5-1.3
			c-0.2-0.5-0.3-1-0.5-1.5c-0.2,0.5-0.3,1-0.5,1.5c-0.2,0.5-0.3,0.9-0.5,1.3L99.3,40.7z"/>
		<path class="st0" d="M179.5,49.7c0.2,0,0.4,0.1,0.6,0.2l1.3,1.4c-1,1-2,1.9-3.1,2.8c-1.1,0.8-2.4,1.5-3.7,2.1
			c-1.3,0.6-2.8,1-4.4,1.3c-1.6,0.3-3.4,0.5-5.3,0.5c-3.2,0-6.1-0.6-8.8-1.7s-5-2.7-6.9-4.8c-1.9-2.1-3.4-4.6-4.5-7.5
			c-1.1-2.9-1.6-6.2-1.6-9.8c0-3.5,0.6-6.7,1.7-9.6c1.1-2.9,2.7-5.4,4.6-7.5c2-2.1,4.4-3.7,7.2-4.8c2.8-1.1,5.9-1.7,9.2-1.7
			c1.7,0,3.2,0.1,4.6,0.4c1.4,0.3,2.7,0.6,3.9,1.1c1.2,0.5,2.4,1.1,3.4,1.8c1.1,0.7,2.1,1.5,3.1,2.4l-1,1.5
			c-0.2,0.3-0.4,0.4-0.8,0.4c-0.2,0-0.4-0.1-0.8-0.3c-0.3-0.2-0.7-0.5-1.2-0.9c-0.5-0.3-1-0.7-1.7-1.1c-0.7-0.4-1.5-0.8-2.4-1.1
			c-0.9-0.3-2-0.6-3.2-0.9c-1.2-0.2-2.6-0.3-4.1-0.3c-2.8,0-5.4,0.5-7.8,1.5s-4.4,2.4-6.1,4.2c-1.7,1.8-3,4-4,6.5
			c-0.9,2.6-1.4,5.4-1.4,8.6c0,3.3,0.5,6.2,1.4,8.8c0.9,2.6,2.2,4.8,3.9,6.5c1.7,1.8,3.6,3.1,5.9,4.1c2.3,0.9,4.7,1.4,7.3,1.4
			c1.7,0,3.1-0.1,4.4-0.3c1.3-0.2,2.5-0.5,3.6-1c1.1-0.4,2.1-1,3-1.6c0.9-0.6,1.9-1.4,2.8-2.2c0.1-0.1,0.2-0.2,0.3-0.2
			C179.2,49.7,179.3,49.7,179.5,49.7z"/>
		<path class="st0" d="M228.8,11.2v2.8h-24.4v18.7h20.3v2.7h-20.3v19.3h24.4v2.8H201V11.2H228.8z"/>
		<path class="st0" d="M275,36.5v21h-3.3V11.2h11.8c5.3,0,9.3,1,12,3.1c2.6,2.1,4,5.1,4,9.1c0,1.8-0.3,3.4-0.9,4.8
			c-0.6,1.5-1.5,2.7-2.6,3.8c-1.1,1.1-2.5,2-4.1,2.7c-1.6,0.7-3.4,1.2-5.5,1.4c0.5,0.3,1,0.8,1.4,1.3l15.9,20h-2.9
			c-0.3,0-0.7-0.1-0.9-0.2c-0.3-0.1-0.5-0.3-0.7-0.7l-14.8-18.8c-0.4-0.5-0.8-0.8-1.2-1c-0.4-0.2-1.1-0.3-2-0.3H275z M275,34h8.1
			c2.1,0,3.9-0.2,5.5-0.7c1.6-0.5,3-1.2,4.1-2.1c1.1-0.9,2-2,2.6-3.3c0.6-1.3,0.9-2.7,0.9-4.4c0-3.3-1.1-5.7-3.2-7.3
			c-2.2-1.6-5.3-2.4-9.4-2.4H275V34z"/>
		<path class="st0" d="M356.1,57.5h-2.6c-0.3,0-0.6-0.1-0.8-0.2s-0.3-0.4-0.5-0.6l-5.5-13.5H324l-5.4,13.5c-0.1,0.2-0.2,0.4-0.5,0.6
			c-0.2,0.2-0.5,0.3-0.8,0.3h-2.6l19-46.3h3.3L356.1,57.5z M325,40.7h20.8l-9.5-23.4c-0.2-0.4-0.3-0.8-0.5-1.3
			c-0.2-0.5-0.3-1-0.5-1.5c-0.2,0.5-0.3,1-0.5,1.5c-0.2,0.5-0.3,0.9-0.5,1.3L325,40.7z"/>
		<path class="st0" d="M405.2,49.7c0.2,0,0.4,0.1,0.6,0.2l1.3,1.4c-1,1-2,1.9-3.1,2.8c-1.1,0.8-2.4,1.5-3.7,2.1
			c-1.3,0.6-2.8,1-4.4,1.3c-1.6,0.3-3.4,0.5-5.3,0.5c-3.2,0-6.1-0.6-8.8-1.7s-5-2.7-6.9-4.8c-1.9-2.1-3.4-4.6-4.5-7.5
			c-1.1-2.9-1.6-6.2-1.6-9.8c0-3.5,0.6-6.7,1.7-9.6c1.1-2.9,2.7-5.4,4.6-7.5c2-2.1,4.4-3.7,7.2-4.8c2.8-1.1,5.9-1.7,9.2-1.7
			c1.7,0,3.2,0.1,4.6,0.4c1.4,0.3,2.7,0.6,3.9,1.1c1.2,0.5,2.4,1.1,3.4,1.8c1.1,0.7,2.1,1.5,3.1,2.4l-1,1.5
			c-0.2,0.3-0.4,0.4-0.8,0.4c-0.2,0-0.4-0.1-0.8-0.3c-0.3-0.2-0.7-0.5-1.2-0.9s-1-0.7-1.7-1.1s-1.5-0.8-2.4-1.1
			c-0.9-0.3-2-0.6-3.2-0.9c-1.2-0.2-2.6-0.3-4.1-0.3c-2.8,0-5.4,0.5-7.8,1.5c-2.4,1-4.4,2.4-6.1,4.2s-3,4-4,6.5
			c-1,2.6-1.4,5.4-1.4,8.6c0,3.3,0.5,6.2,1.4,8.8c0.9,2.6,2.2,4.8,3.9,6.5c1.7,1.8,3.6,3.1,5.9,4.1c2.3,0.9,4.7,1.4,7.3,1.4
			c1.7,0,3.1-0.1,4.4-0.3c1.3-0.2,2.5-0.5,3.6-1c1.1-0.4,2.1-1,3-1.6c0.9-0.6,1.9-1.4,2.8-2.2c0.1-0.1,0.2-0.2,0.3-0.2
			C405,49.7,405.1,49.7,405.2,49.7z"/>
		<path class="st0" d="M454.6,11.2v2.8h-24.4v18.7h20.3v2.7h-20.3v19.3h24.4v2.8h-27.8V11.2H454.6z"/>
	</g>
	<g>
		<path class="st1" d="M22,95.3c0.1,0.4,0.3,0.7,0.4,1.1c0.1-0.4,0.3-0.7,0.4-1.1c0.1-0.3,0.3-0.7,0.5-1.1l9.9-18
			c0.2-0.3,0.4-0.5,0.6-0.6c0.2-0.1,0.5-0.1,0.8-0.1h2.9v29.3h-3.5V83.3c0-0.3,0-0.6,0-0.9c0-0.3,0-0.7,0.1-1l-10,18.3
			c-0.3,0.6-0.8,0.9-1.4,0.9h-0.6c-0.6,0-1.1-0.3-1.4-0.9L10.5,81.3c0,0.4,0.1,0.7,0.1,1c0,0.3,0,0.7,0,0.9v21.5H7.1V75.6h2.9
			c0.4,0,0.6,0,0.8,0.1c0.2,0.1,0.4,0.3,0.6,0.6l10.1,18C21.7,94.6,21.9,94.9,22,95.3z"/>
		<path class="st1" d="M55.1,104.8h-4V75.6h4V104.8z"/>
		<path class="st1" d="M83.7,80.1c-0.1,0.2-0.3,0.4-0.4,0.5c-0.1,0.1-0.3,0.2-0.5,0.2c-0.2,0-0.5-0.1-0.8-0.3
			c-0.3-0.2-0.7-0.5-1.2-0.8s-1-0.5-1.7-0.8c-0.7-0.2-1.5-0.3-2.4-0.3c-0.9,0-1.7,0.1-2.4,0.4c-0.7,0.2-1.2,0.6-1.7,1
			s-0.8,0.9-1,1.4c-0.2,0.6-0.3,1.1-0.3,1.8c0,0.8,0.2,1.5,0.6,2s0.9,1,1.6,1.4s1.4,0.7,2.2,1c0.8,0.3,1.7,0.6,2.6,0.9
			c0.9,0.3,1.7,0.6,2.6,1c0.8,0.4,1.6,0.8,2.2,1.4c0.7,0.6,1.2,1.3,1.6,2.1c0.4,0.8,0.6,1.9,0.6,3.1c0,1.3-0.2,2.5-0.7,3.6
			c-0.4,1.1-1.1,2.1-1.9,2.9s-1.9,1.5-3.1,2s-2.6,0.7-4.2,0.7c-1.9,0-3.6-0.3-5.2-1c-1.6-0.7-2.9-1.6-4-2.8l1.1-1.9
			c0.1-0.1,0.2-0.3,0.4-0.4s0.3-0.2,0.5-0.2c0.3,0,0.6,0.2,1,0.5c0.4,0.3,0.8,0.6,1.4,1s1.2,0.7,2,1c0.8,0.3,1.7,0.5,2.9,0.5
			c0.9,0,1.8-0.1,2.5-0.4c0.7-0.3,1.4-0.6,1.9-1.1c0.5-0.5,0.9-1,1.2-1.7s0.4-1.4,0.4-2.2c0-0.9-0.2-1.6-0.6-2.2
			c-0.4-0.6-0.9-1-1.6-1.4c-0.7-0.4-1.4-0.7-2.2-1c-0.8-0.3-1.7-0.5-2.6-0.8c-0.9-0.3-1.7-0.6-2.6-1c-0.8-0.4-1.6-0.8-2.2-1.4
			c-0.7-0.6-1.2-1.3-1.6-2.2c-0.4-0.9-0.6-2-0.6-3.3c0-1,0.2-2,0.6-3c0.4-1,1-1.8,1.7-2.6c0.8-0.7,1.7-1.3,2.8-1.8
			c1.1-0.4,2.4-0.7,3.9-0.7c1.6,0,3.1,0.3,4.5,0.8s2.5,1.3,3.5,2.2L83.7,80.1z"/>
		<path class="st1" d="M111.1,80.1c-0.1,0.2-0.3,0.4-0.4,0.5c-0.1,0.1-0.3,0.2-0.5,0.2c-0.2,0-0.5-0.1-0.8-0.3
			c-0.3-0.2-0.7-0.5-1.2-0.8s-1-0.5-1.7-0.8c-0.7-0.2-1.5-0.3-2.4-0.3c-0.9,0-1.7,0.1-2.4,0.4c-0.7,0.2-1.2,0.6-1.7,1
			s-0.8,0.9-1,1.4c-0.2,0.6-0.3,1.1-0.3,1.8c0,0.8,0.2,1.5,0.6,2s0.9,1,1.6,1.4s1.4,0.7,2.2,1c0.8,0.3,1.7,0.6,2.6,0.9
			c0.9,0.3,1.7,0.6,2.6,1c0.8,0.4,1.6,0.8,2.2,1.4c0.7,0.6,1.2,1.3,1.6,2.1c0.4,0.8,0.6,1.9,0.6,3.1c0,1.3-0.2,2.5-0.7,3.6
			c-0.4,1.1-1.1,2.1-1.9,2.9s-1.9,1.5-3.1,2s-2.6,0.7-4.2,0.7c-1.9,0-3.6-0.3-5.2-1c-1.6-0.7-2.9-1.6-4-2.8l1.1-1.9
			c0.1-0.1,0.2-0.3,0.4-0.4s0.3-0.2,0.5-0.2c0.3,0,0.6,0.2,1,0.5c0.4,0.3,0.8,0.6,1.4,1s1.2,0.7,2,1c0.8,0.3,1.7,0.5,2.9,0.5
			c0.9,0,1.8-0.1,2.5-0.4c0.7-0.3,1.4-0.6,1.9-1.1c0.5-0.5,0.9-1,1.2-1.7s0.4-1.4,0.4-2.2c0-0.9-0.2-1.6-0.6-2.2
			c-0.4-0.6-0.9-1-1.6-1.4c-0.7-0.4-1.4-0.7-2.2-1c-0.8-0.3-1.7-0.5-2.6-0.8c-0.9-0.3-1.7-0.6-2.6-1c-0.8-0.4-1.6-0.8-2.2-1.4
			c-0.7-0.6-1.2-1.3-1.6-2.2c-0.4-0.9-0.6-2-0.6-3.3c0-1,0.2-2,0.6-3c0.4-1,1-1.8,1.7-2.6c0.8-0.7,1.7-1.3,2.8-1.8
			c1.1-0.4,2.4-0.7,3.9-0.7c1.6,0,3.1,0.3,4.5,0.8s2.5,1.3,3.5,2.2L111.1,80.1z"/>
		<path class="st1" d="M128.2,104.8h-4V75.6h4V104.8z"/>
		<path class="st1" d="M168.9,90.2c0,2.2-0.3,4.2-1,6c-0.7,1.8-1.7,3.4-2.9,4.7s-2.8,2.3-4.6,3.1c-1.8,0.7-3.7,1.1-5.9,1.1
			s-4.1-0.4-5.9-1.1c-1.8-0.7-3.3-1.8-4.6-3.1s-2.2-2.9-2.9-4.7c-0.7-1.8-1-3.8-1-6c0-2.2,0.3-4.2,1-6c0.7-1.8,1.7-3.4,2.9-4.7
			s2.8-2.4,4.6-3.1c1.8-0.7,3.7-1.1,5.9-1.1s4.1,0.4,5.9,1.1c1.8,0.7,3.3,1.8,4.6,3.1s2.2,2.9,2.9,4.7C168.6,86,168.9,88,168.9,90.2
			z M164.9,90.2c0-1.8-0.2-3.4-0.7-4.8s-1.2-2.6-2.1-3.6c-0.9-1-2-1.7-3.3-2.3s-2.7-0.8-4.3-0.8c-1.6,0-3,0.3-4.3,0.8
			s-2.4,1.3-3.3,2.3c-0.9,1-1.6,2.2-2.1,3.6s-0.7,3-0.7,4.8s0.2,3.4,0.7,4.8c0.5,1.4,1.2,2.6,2.1,3.6c0.9,1,2,1.7,3.3,2.3
			s2.7,0.8,4.3,0.8c1.6,0,3-0.3,4.3-0.8s2.4-1.3,3.3-2.3c0.9-1,1.6-2.2,2.1-3.6C164.6,93.6,164.9,92,164.9,90.2z"/>
		<path class="st1" d="M182.9,75.7c0.2,0.1,0.4,0.3,0.6,0.5l17,22.1c0-0.4-0.1-0.7-0.1-1c0-0.3,0-0.7,0-1V75.6h3.5v29.3h-2
			c-0.3,0-0.6-0.1-0.8-0.2c-0.2-0.1-0.4-0.3-0.6-0.6l-16.9-22c0,0.3,0,0.7,0.1,1s0,0.6,0,0.9v20.9h-3.5V75.6h2
			C182.5,75.6,182.7,75.6,182.9,75.7z"/>
		<path class="st1" d="M250.9,98.8c0.2,0,0.4,0.1,0.6,0.3l1.6,1.7c-1.2,1.4-2.7,2.5-4.4,3.2c-1.7,0.8-3.8,1.2-6.2,1.2
			c-2.1,0-4-0.4-5.7-1.1c-1.7-0.7-3.2-1.8-4.4-3.1c-1.2-1.3-2.2-2.9-2.8-4.7c-0.7-1.8-1-3.9-1-6.1s0.4-4.2,1.1-6.1
			c0.7-1.8,1.7-3.4,3-4.7c1.3-1.3,2.8-2.3,4.6-3.1c1.8-0.7,3.8-1.1,6-1.1c2.2,0,4,0.3,5.6,1c1.6,0.7,2.9,1.6,4.2,2.7l-1.3,1.8
			c-0.1,0.1-0.2,0.2-0.3,0.3c-0.1,0.1-0.3,0.1-0.5,0.1c-0.2,0-0.4-0.1-0.6-0.2c-0.2-0.1-0.4-0.3-0.7-0.5c-0.3-0.2-0.6-0.4-1-0.6
			c-0.4-0.2-0.8-0.4-1.3-0.6c-0.5-0.2-1.1-0.4-1.8-0.5c-0.7-0.1-1.4-0.2-2.3-0.2c-1.6,0-3,0.3-4.3,0.8c-1.3,0.5-2.4,1.3-3.4,2.3
			c-0.9,1-1.7,2.2-2.2,3.6c-0.5,1.4-0.8,3-0.8,4.8c0,1.8,0.3,3.5,0.8,4.9c0.5,1.4,1.2,2.6,2.1,3.6c0.9,1,2,1.7,3.2,2.3
			c1.2,0.5,2.6,0.8,4,0.8c0.9,0,1.7-0.1,2.3-0.2c0.7-0.1,1.3-0.3,1.9-0.5c0.6-0.2,1.1-0.5,1.7-0.8c0.5-0.3,1-0.7,1.5-1.2
			C250.5,98.9,250.7,98.8,250.9,98.8z"/>
		<path class="st1" d="M291.2,90.2c0,2.2-0.3,4.2-1,6c-0.7,1.8-1.7,3.4-2.9,4.7c-1.3,1.3-2.8,2.3-4.6,3.1c-1.8,0.7-3.7,1.1-5.9,1.1
			s-4.1-0.4-5.9-1.1c-1.8-0.7-3.3-1.8-4.6-3.1c-1.3-1.3-2.2-2.9-2.9-4.7c-0.7-1.8-1-3.8-1-6c0-2.2,0.3-4.2,1-6
			c0.7-1.8,1.7-3.4,2.9-4.7c1.3-1.3,2.8-2.4,4.6-3.1c1.8-0.7,3.7-1.1,5.9-1.1s4.1,0.4,5.9,1.1c1.8,0.7,3.3,1.8,4.6,3.1
			c1.3,1.3,2.2,2.9,2.9,4.7S291.2,88,291.2,90.2z M287.1,90.2c0-1.8-0.2-3.4-0.7-4.8s-1.2-2.6-2.1-3.6c-0.9-1-2-1.7-3.3-2.3
			c-1.3-0.5-2.7-0.8-4.3-0.8c-1.6,0-3,0.3-4.3,0.8c-1.3,0.5-2.4,1.3-3.3,2.3c-0.9,1-1.6,2.2-2.1,3.6s-0.7,3-0.7,4.8s0.2,3.4,0.7,4.8
			c0.5,1.4,1.2,2.6,2.1,3.6c0.9,1,2,1.7,3.3,2.3c1.3,0.5,2.7,0.8,4.3,0.8c1.6,0,3-0.3,4.3-0.8c1.3-0.5,2.4-1.3,3.3-2.3
			c0.9-1,1.6-2.2,2.1-3.6C286.9,93.6,287.1,92,287.1,90.2z"/>
		<path class="st1" d="M305.2,75.7c0.2,0.1,0.4,0.3,0.6,0.5l17,22.1c0-0.4-0.1-0.7-0.1-1c0-0.3,0-0.7,0-1V75.6h3.5v29.3h-2
			c-0.3,0-0.6-0.1-0.8-0.2c-0.2-0.1-0.4-0.3-0.6-0.6l-16.9-22c0,0.3,0,0.7,0.1,1s0,0.6,0,0.9v20.9h-3.5V75.6h2
			C304.7,75.6,305,75.6,305.2,75.7z"/>
		<path class="st1" d="M358.9,75.6v3.3h-9.5v26h-4v-26H336v-3.3H358.9z"/>
		<path class="st1" d="M373.2,92.6v12.2h-3.9V75.6h8.3c1.9,0,3.5,0.2,4.8,0.6c1.3,0.4,2.5,0.9,3.3,1.6c0.9,0.7,1.5,1.6,2,2.6
			c0.4,1,0.6,2.1,0.6,3.4c0,1-0.2,2-0.5,2.9c-0.3,0.9-0.8,1.7-1.4,2.4s-1.4,1.3-2.3,1.8c-0.9,0.5-1.9,0.9-3,1.1
			c0.5,0.3,0.9,0.7,1.3,1.2l8.5,11.6h-3.5c-0.7,0-1.3-0.3-1.6-0.8l-7.6-10.5c-0.2-0.3-0.5-0.6-0.8-0.7s-0.7-0.2-1.2-0.2H373.2z
			 M373.2,89.7h4.1c1.2,0,2.2-0.1,3.1-0.4c0.9-0.3,1.6-0.7,2.2-1.2c0.6-0.5,1-1.1,1.3-1.8c0.3-0.7,0.4-1.5,0.4-2.3
			c0-1.7-0.6-3.1-1.7-3.9c-1.2-0.9-2.9-1.3-5.1-1.3h-4.3V89.7z"/>
		<path class="st1" d="M427.1,90.2c0,2.2-0.3,4.2-1,6c-0.7,1.8-1.7,3.4-2.9,4.7c-1.3,1.3-2.8,2.3-4.6,3.1c-1.8,0.7-3.7,1.1-5.9,1.1
			s-4.1-0.4-5.9-1.1c-1.8-0.7-3.3-1.8-4.6-3.1s-2.2-2.9-2.9-4.7c-0.7-1.8-1-3.8-1-6c0-2.2,0.3-4.2,1-6c0.7-1.8,1.7-3.4,2.9-4.7
			s2.8-2.4,4.6-3.1c1.8-0.7,3.7-1.1,5.9-1.1s4.1,0.4,5.9,1.1c1.8,0.7,3.3,1.8,4.6,3.1c1.3,1.3,2.2,2.9,2.9,4.7
			C426.8,86,427.1,88,427.1,90.2z M423,90.2c0-1.8-0.2-3.4-0.7-4.8c-0.5-1.4-1.2-2.6-2.1-3.6c-0.9-1-2-1.7-3.3-2.3s-2.7-0.8-4.3-0.8
			c-1.6,0-3,0.3-4.3,0.8s-2.4,1.3-3.3,2.3c-0.9,1-1.6,2.2-2.1,3.6s-0.7,3-0.7,4.8s0.2,3.4,0.7,4.8c0.5,1.4,1.2,2.6,2.1,3.6
			c0.9,1,2,1.7,3.3,2.3s2.7,0.8,4.3,0.8c1.6,0,3-0.3,4.3-0.8s2.4-1.3,3.3-2.3c0.9-1,1.6-2.2,2.1-3.6C422.8,93.6,423,92,423,90.2z"/>
		<path class="st1" d="M442.2,101.5h12.7v3.3h-16.6V75.6h4V101.5z"/>
	</g>
</g>
<g id="buttons">
</g>
<g id="extra_illustrations">
</g>
<g id="Docs">
</g>
</svg>
